<?xml version="1.0" encoding="utf-8"?>
<!-- Generator: Adobe Illustrator 27.3.1, SVG Export Plug-In . SVG Version: 6.00 Build 0)  -->
<svg version="1.1" id="Layer_2_00000007399411733726335920000003806077890589671848_"
	 xmlns="http://www.w3.org/2000/svg" xmlns:xlink="http://www.w3.org/1999/xlink" x="0px" y="0px" viewBox="0 0 170.7 292.4"
	 style="enable-background:new 0 0 170.7 292.4;" xml:space="preserve">
<style type="text/css">
	.st0{fill:url(#SVGID_1_);}
	.st1{fill:url(#SVGID_00000053533983890934543250000006328066202264641722_);}
	.st2{fill:url(#SVGID_00000173131768966928989930000014455175602342563262_);}
	.st3{fill:url(#SVGID_00000015321077141472798580000003288383943886521233_);}
	.st4{fill:#C1272D;}
	.st5{fill:url(#SVGID_00000079467990208706543830000001676125122332185520_);}
	.st6{fill:url(#SVGID_00000160187743495677009120000015397565412322445206_);}
	.st7{fill:none;stroke:#000000;stroke-width:5;stroke-linecap:round;stroke-miterlimit:10;}
	.st8{fill:#333333;}
</style>
<g>
	
		<linearGradient id="SVGID_1_" gradientUnits="userSpaceOnUse" x1="162.5749" y1="171.5001" x2="162.3349" y2="154.5001" gradientTransform="matrix(1 0 0 -1 0 294)">
		<stop  offset="0" style="stop-color:#7E1A1D"/>
		<stop  offset="1" style="stop-color:#C1272D"/>
	</linearGradient>
	<path class="st0" d="M153.7,221.6L153.7,221.6V96.3c0-3.1,2.5-5.7,5.7-5.7l0,0c6.3,0,11.3,5.1,11.3,11.3v102.7
		C170.7,214,163.1,221.6,153.7,221.6z"/>
	
		<linearGradient id="SVGID_00000075857988552085338870000011129489853436313783_" gradientUnits="userSpaceOnUse" x1="154.4409" y1="164.2701" x2="154.1909" y2="147.2701" gradientTransform="matrix(1 0 0 -1 0 294)">
		<stop  offset="0" style="stop-color:#7E1A1D"/>
		<stop  offset="1" style="stop-color:#C1272D"/>
	</linearGradient>
	<path style="fill:url(#SVGID_00000075857988552085338870000011129489853436313783_);" d="M145.7,218.6L145.7,218.6V93.3
		c0-3.1,2.5-5.7,5.7-5.7l0,0c6.3,0,11.3,5.1,11.3,11.3v102.7C162.7,211,155.1,218.6,145.7,218.6z"/>
</g>
<g>
	<g>
		<path d="M109.1,290.4L109.1,290.4c-0.3,1.4-1.6,2.2-3,2l-14.4-3c-1.4-0.3-2.2-1.6-2-3l0,0c0.3-1.4,1.6-2.2,3-2l14.4,3
			C108.5,287.7,109.4,289,109.1,290.4z"/>
		<path d="M137.9,290.3L137.9,290.3c-0.3,1.4-1.6,2.2-3,2l-14.4-3c-1.4-0.3-2.2-1.6-2-3l0,0c0.3-1.4,1.6-2.2,3-2l14.4,3
			C137.3,287.6,138.2,288.9,137.9,290.3z"/>
	</g>
</g>
<g>
	<path d="M91.9,288.7L91.9,288.7c-1.3,0-2.3-1-2.3-2.3V140.5c0-1.3,1-2.3,2.3-2.3h0c1.3,0,2.3,1,2.3,2.3v145.9
		C94.2,287.7,93.2,288.7,91.9,288.7z"/>
	<path d="M120.7,288.6L120.7,288.6c-1.3,0-2.3-1-2.3-2.3V140.4c0-1.3,1-2.3,2.3-2.3h0c1.3,0,2.3,1,2.3,2.3v145.9
		C123,287.6,122,288.6,120.7,288.6z"/>
</g>
<g>
	<g>
		
			<linearGradient id="SVGID_00000157275705539753449230000000247597494996679810_" gradientUnits="userSpaceOnUse" x1="-3271.5356" y1="3324.1721" x2="-3271.6755" y2="3313.8923" gradientTransform="matrix(0.1654 -0.9862 0.9862 0.1654 -2676.804 -3650.4807)">
			<stop  offset="0" style="stop-color:#7E1A1D"/>
			<stop  offset="1" style="stop-color:#C1272D"/>
		</linearGradient>
		<path style="fill:url(#SVGID_00000157275705539753449230000000247597494996679810_);" d="M79,132L79,132c-0.5,3.1-3.4,5.2-6.5,4.6
			L0,124.5l0,0c1.6-9.3,10.3-15.5,19.6-14l50.1,8.4C75.9,120,80.1,125.8,79,132z"/>
		
			<linearGradient id="SVGID_00000108283457126874895300000002324031294250367906_" gradientUnits="userSpaceOnUse" x1="-3279.6116" y1="3319.792" x2="-3279.7615" y2="3309.5122" gradientTransform="matrix(0.1654 -0.9862 0.9862 0.1654 -2676.8008 -3650.4709)">
			<stop  offset="0" style="stop-color:#7E1A1D"/>
			<stop  offset="1" style="stop-color:#C1272D"/>
		</linearGradient>
		<path style="fill:url(#SVGID_00000108283457126874895300000002324031294250367906_);" d="M79.5,140.2L79.5,140.2
			c-0.5,3.1-3.4,5.2-6.5,4.6L0.5,132.7l0,0c1.6-9.3,10.3-15.5,19.6-14l50.1,8.4C76.4,128.2,80.5,134,79.5,140.2z"/>
	</g>
	<g>
		<path class="st4" d="M77.8,26l-4.7,3C64,34.7,52,32,46.2,22.9l0,0c-1.6-2.6-0.9-6,1.7-7.6l0,0c9.1-5.8,21.1-3.1,26.9,6L77.8,26
			L77.8,26z"/>
		<path class="st4" d="M79.2,25.3l1.7-4.2c3.2-8.3-0.9-17.6-9.2-20.8l0,0c-2.3-0.9-5,0.2-5.9,2.6l0,0c-3.2,8.3,0.9,17.6,9.2,20.8
			L79.2,25.3L79.2,25.3z"/>
	</g>
	<path class="st4" d="M104.9,12.6L104.9,12.6c36.3,0,65.8,29.5,65.8,65.8v18.3c0,28.1-22.8,50.9-50.9,50.9H91.1
		c-28.4,0-51.4-23-51.4-51.4V77.8C39.7,41.8,68.9,12.6,104.9,12.6L104.9,12.6z"/>
</g>
<g>
	
		<linearGradient id="SVGID_00000078728479220461806190000017967210632255026340_" gradientUnits="userSpaceOnUse" x1="-6670.8643" y1="170.5001" x2="-6671.1045" y2="153.5001" gradientTransform="matrix(-1 0 0 -1 -6623.0698 294)">
		<stop  offset="0" style="stop-color:#7E1A1D"/>
		<stop  offset="1" style="stop-color:#C1272D"/>
	</linearGradient>
	<path style="fill:url(#SVGID_00000078728479220461806190000017967210632255026340_);" d="M51,91.6L51,91.6c3.1,0,5.7,2.5,5.7,5.7
		v125.3l0,0c-9.4,0-17-7.6-17-17V102.9C39.7,96.7,44.8,91.6,51,91.6z"/>
	
		<linearGradient id="SVGID_00000108297810450673137630000011315843214917785258_" gradientUnits="userSpaceOnUse" x1="-6678.9888" y1="163.27" x2="-6679.2485" y2="146.27" gradientTransform="matrix(-1 0 0 -1 -6623.0698 294)">
		<stop  offset="0" style="stop-color:#7E1A1D"/>
		<stop  offset="1" style="stop-color:#C1272D"/>
	</linearGradient>
	<path style="fill:url(#SVGID_00000108297810450673137630000011315843214917785258_);" d="M59,88.6L59,88.6c3.1,0,5.7,2.5,5.7,5.7
		v125.3l0,0c-9.4,0-17-7.6-17-17V99.9C47.7,93.7,52.8,88.6,59,88.6z"/>
</g>
<g>
	<path d="M87.6,70.2L87.6,70.2c2.2,0,4,1.8,4,4v6.5c0,2.2-1.8,4-4,4l0,0c-2.2,0-4-1.8-4-4v-6.5C83.7,72,85.5,70.2,87.6,70.2z"/>
	<path d="M148.7,70.2L148.7,70.2c2.2,0,4,1.8,4,4v6.4c0,2.2-1.8,4-4,4l0,0c-2.2,0-4-1.8-4-4v-6.4C144.7,72,146.5,70.2,148.7,70.2z"
		/>
	<path d="M135.1,88.2l6.4,6.4l-6.4,6.4c-3.5,3.5-9.2,3.5-12.7,0l-1.1-1.1c-2.9-2.9-2.9-7.7,0-10.6l1.1-1.1
		C125.8,84.7,131.5,84.7,135.1,88.2z"/>
</g>
<g>
	<path d="M87.6,74.5h5.1c1.6,0,2.9,1.3,2.9,2.9v0c0,1.6-1.3,2.9-2.9,2.9h-5.1c-1.6,0-2.9-1.3-2.9-2.9v0C84.7,75.8,86,74.5,87.6,74.5
		z"/>
	<path d="M148.6,74.5h5.1c1.6,0,2.9,1.3,2.9,2.9v0c0,1.6-1.3,2.9-2.9,2.9h-5.1c-1.6,0-2.9-1.3-2.9-2.9v0
		C145.7,75.8,147,74.5,148.6,74.5z"/>
	<path d="M135.1,88.2l6.4,6.4l-6.4,6.4c-3.5,3.5-9.2,3.5-12.7,0l-1.1-1.1c-2.9-2.9-2.9-7.7,0-10.6l1.1-1.1
		C125.8,84.7,131.5,84.7,135.1,88.2z"/>
</g>
<g>
	<g>
		<path class="st7" d="M149,73.8c2.7,1.6,5.3,1.6,8,0"/>
		<path class="st7" d="M88,73.8c2.7,1.6,5.3,1.6,8,0"/>
	</g>
	<g>
		<path d="M134.7,87.5l2.3,1.7c2.4,1.8,2.8,5.1,1,7.5l-1.7,2.3c-3.2,4.3-9.4,5.1-13.7,1.9l0,0c-3.6-2.7-4.3-7.9-1.6-11.6l0,0
			C124.3,85.1,130.4,84.3,134.7,87.5z"/>
		<circle class="st8" cx="136.1" cy="93.8" r="2"/>
	</g>
</g>
</svg>
