<?xml version="1.0" encoding="UTF-8"?>
<svg id="Layer_2" data-name="Layer 2" xmlns="http://www.w3.org/2000/svg" xmlns:xlink="http://www.w3.org/1999/xlink" viewBox="0 0 170.69 292.04">
  <defs>
    <style>
      .cls-1 {
        fill: url(#linear-gradient-2);
      }

      .cls-2 {
        fill: url(#linear-gradient-6);
      }

      .cls-3 {
        fill: #c1272d;
      }

      .cls-4 {
        fill: none;
        stroke: #000;
        stroke-linecap: round;
        stroke-miterlimit: 10;
        stroke-width: 5px;
      }

      .cls-5 {
        fill: #333;
      }

      .cls-6 {
        fill: url(#linear-gradient-5);
      }

      .cls-7 {
        fill: url(#linear-gradient-3);
      }

      .cls-8 {
        fill: url(#linear-gradient);
      }

      .cls-9 {
        fill: url(#linear-gradient-4);
      }
    </style>
    <linearGradient id="linear-gradient" x1="162.58" y1="124.22" x2="162.34" y2="141.22" gradientTransform="translate(324.37 315.64) rotate(180)" gradientUnits="userSpaceOnUse">
      <stop offset="0" stop-color="#7e1a1d"/>
      <stop offset="1" stop-color="#c1272d"/>
    </linearGradient>
    <linearGradient id="linear-gradient-2" x1="154.45" y1="131.45" x2="154.2" y2="148.44" gradientTransform="translate(308.37 309.64) rotate(-180)" xlink:href="#linear-gradient"/>
    <linearGradient id="linear-gradient-3" x1="-2145.49" y1="-1697.85" x2="-2145.64" y2="-1687.57" gradientTransform="translate(-2105.25 1801.91) rotate(-180) scale(1 -1)" xlink:href="#linear-gradient"/>
    <linearGradient id="linear-gradient-4" x1="-2153.57" y1="-1693.48" x2="-2153.73" y2="-1683.2" gradientTransform="translate(-2112.78 1811.91) rotate(-180) scale(1 -1)" xlink:href="#linear-gradient"/>
    <linearGradient id="linear-gradient-5" x1="-4908.62" y1="125.22" x2="-4908.86" y2="142.22" gradientTransform="translate(-4860.83) rotate(-180) scale(1 -1)" xlink:href="#linear-gradient"/>
    <linearGradient id="linear-gradient-6" x1="-4916.75" y1="132.45" x2="-4917.01" y2="149.44" gradientTransform="translate(-4860.83) rotate(-180) scale(1 -1)" xlink:href="#linear-gradient"/>
  </defs>
  <g id="Layer_1-2" data-name="Layer 1">
    <g id="_3" data-name="3">
      <g>
        <rect x="121.95" y="141.57" width="4.68" height="150.55" rx="2.34" ry="2.34" transform="translate(258.72 427.55) rotate(177.28)"/>
        <rect x="132.66" y="277.47" width="5.06" height="19.75" rx="2.53" ry="2.53" transform="translate(371.33 75.03) rotate(73.24)"/>
      </g>
      <g>
        <rect x="92.63" y="141.51" width="4.68" height="150.55" rx="2.34" ry="2.34" transform="translate(200.12 428.82) rotate(177.28)"/>
        <rect x="103.34" y="277.4" width="5.06" height="19.75" rx="2.53" ry="2.53" transform="translate(350.41 103.06) rotate(73.24)"/>
      </g>
      <g>
        <path class="cls-8" d="m170.69,92.32h0v125.34c0,3.12-2.54,5.66-5.66,5.66h0c-6.26,0-11.34-5.08-11.34-11.34v-102.66c0-9.38,7.62-17,17-17Z" transform="translate(324.37 315.64) rotate(-180)"/>
        <path class="cls-1" d="m162.69,89.32h0v125.34c0,3.12-2.54,5.66-5.66,5.66h0c-6.26,0-11.34-5.08-11.34-11.34v-102.66c0-9.38,7.62-17,17-17Z" transform="translate(308.37 309.64) rotate(180)"/>
      </g>
      <g>
        <path class="cls-7" d="m43.29,84.75h0c3.12,0,5.66,2.54,5.66,5.66v73.53h0c-9.38,0-17-7.62-17-17v-50.85c0-6.26,5.08-11.34,11.34-11.34Z" transform="translate(169.78 105.02) rotate(99.52)"/>
        <path class="cls-9" d="m43.76,92.94h0c3.12,0,5.66,2.54,5.66,5.66v73.53h0c-9.38,0-17-7.62-17-17v-50.85c0-6.26,5.08-11.34,11.34-11.34Z" transform="translate(178.4 114.1) rotate(99.52)"/>
      </g>
      <g>
        <path class="cls-3" d="m104.54,14.31h0c36.33,0,65.82,29.49,65.82,65.82v18.31c0,28.07-22.79,50.86-50.86,50.86h-28.73c-28.37,0-51.4-23.03-51.4-51.4v-18.42c0-35.97,29.2-65.18,65.18-65.18Z" transform="translate(4.34 -5.28) rotate(2.95)"/>
        <g>
          <path d="m128.34,88.5h2.9c2.95,0,5.35,2.4,5.35,5.35v2.9c0,5.38-4.37,9.75-9.75,9.75h0c-4.55,0-8.25-3.7-8.25-8.25h0c0-5.38,4.37-9.75,9.75-9.75Z" transform="translate(114.52 -62.54) rotate(47.95)"/>
          <circle class="cls-5" cx="134.96" cy="98.52" r="2"/>
        </g>
        <g>
          <path class="cls-3" d="m80.27,26.36l-4.81,2.71c-9.37,5.28-21.25,1.97-26.53-7.4h0c-1.5-2.66-.56-6.03,2.1-7.53h0c9.37-5.28,21.25-1.97,26.53,7.4l2.71,4.81Z"/>
          <path class="cls-3" d="m81.72,25.79l1.87-4.15c3.64-8.09.02-17.6-8.07-21.23h0c-2.29-1.03-4.99,0-6.02,2.29h0c-3.64,8.09-.02,17.6,8.07,21.23l4.15,1.87Z"/>
        </g>
        <g>
          <path class="cls-4" d="m144.68,82.06c2.58,1.77,5.24,1.9,7.99.41"/>
          <path class="cls-4" d="m83.76,78.93c2.58,1.77,5.24,1.9,7.99.41"/>
        </g>
      </g>
      <g>
        <path class="cls-6" d="m51.03,93.32h0c3.12,0,5.66,2.54,5.66,5.66v125.34h0c-9.38,0-17-7.62-17-17v-102.66c0-6.26,5.08-11.34,11.34-11.34Z"/>
        <path class="cls-2" d="m59.03,90.32h0c3.12,0,5.66,2.54,5.66,5.66v125.34h0c-9.38,0-17-7.62-17-17v-102.66c0-6.26,5.08-11.34,11.34-11.34Z"/>
      </g>
    </g>
  </g>
</svg>