<?xml version="1.0" encoding="utf-8"?>
<!-- Generator: Adobe Illustrator 27.3.1, SVG Export Plug-In . SVG Version: 6.00 Build 0)  -->
<svg version="1.1" id="Layer_2_00000044875695060818172060000007260783672942871687_"
	 xmlns="http://www.w3.org/2000/svg" xmlns:xlink="http://www.w3.org/1999/xlink" x="0px" y="0px" viewBox="0 0 170.7 292.4"
	 style="enable-background:new 0 0 170.7 292.4;" xml:space="preserve">
<style type="text/css">
	.st0{fill:url(#SVGID_1_);}
	.st1{fill:url(#SVGID_00000087371503665045215260000007789726089379264692_);}
	.st2{fill:url(#SVGID_00000158717302095468919030000001556149507449378745_);}
	.st3{fill:url(#SVGID_00000129888420354047982480000017395204139864493747_);}
	.st4{fill:#C1272D;}
	.st5{fill:none;stroke:#000000;stroke-width:5;stroke-linecap:round;stroke-miterlimit:10;}
	.st6{fill:#333333;}
	.st7{fill:url(#SVGID_00000053537007642232398180000001962761342044832415_);}
	.st8{fill:url(#SVGID_00000124128825922705197840000012370995783293179532_);}
</style>
<g id="Layer_1-2">
	<g id="_4">
		<g>
			<path d="M91.9,288.7L91.9,288.7c-1.3,0-2.3-1-2.3-2.3V140.5c0-1.3,1-2.3,2.3-2.3h0c1.3,0,2.3,1,2.3,2.3v145.9
				C94.2,287.7,93.2,288.7,91.9,288.7z"/>
			<path d="M109.1,290.4L109.1,290.4c-0.3,1.4-1.6,2.2-3,2l-14.4-3c-1.4-0.3-2.2-1.6-2-3l0,0c0.3-1.4,1.6-2.2,3-2l14.4,3
				C108.5,287.7,109.4,289,109.1,290.4z"/>
		</g>
		<g>
			
				<linearGradient id="SVGID_1_" gradientUnits="userSpaceOnUse" x1="162.5749" y1="171.5001" x2="162.3349" y2="154.5001" gradientTransform="matrix(1 0 0 -1 0 294)">
				<stop  offset="0" style="stop-color:#7E1A1D"/>
				<stop  offset="1" style="stop-color:#C1272D"/>
			</linearGradient>
			<path class="st0" d="M153.7,221.6L153.7,221.6V96.3c0-3.1,2.5-5.7,5.7-5.7l0,0c6.3,0,11.3,5.1,11.3,11.3v102.7
				C170.7,214,163.1,221.6,153.7,221.6z"/>
			
				<linearGradient id="SVGID_00000029724550269388461880000014285500877192574639_" gradientUnits="userSpaceOnUse" x1="154.4409" y1="164.2701" x2="154.1909" y2="147.2701" gradientTransform="matrix(1 0 0 -1 0 294)">
				<stop  offset="0" style="stop-color:#7E1A1D"/>
				<stop  offset="1" style="stop-color:#C1272D"/>
			</linearGradient>
			<path style="fill:url(#SVGID_00000029724550269388461880000014285500877192574639_);" d="M145.7,218.6L145.7,218.6V93.3
				c0-3.1,2.5-5.7,5.7-5.7l0,0c6.3,0,11.3,5.1,11.3,11.3v102.7C162.7,211,155.1,218.6,145.7,218.6z"/>
		</g>
		<g>
			
				<linearGradient id="SVGID_00000075154829755204689340000002559377706892926642_" gradientUnits="userSpaceOnUse" x1="-3270.2957" y1="3322.7021" x2="-3270.4355" y2="3312.4221" gradientTransform="matrix(0.1654 -0.9862 0.9862 0.1654 -2675.5691 -3649.0164)">
				<stop  offset="0" style="stop-color:#7E1A1D"/>
				<stop  offset="1" style="stop-color:#C1272D"/>
			</linearGradient>
			<path style="fill:url(#SVGID_00000075154829755204689340000002559377706892926642_);" d="M79,132L79,132
				c-0.5,3.1-3.4,5.2-6.5,4.6L0,124.5l0,0c1.6-9.3,10.3-15.5,19.6-14l50.1,8.4C75.9,120,80.1,125.8,79,132z"/>
			
				<linearGradient id="SVGID_00000077293728856253738020000012424338658142688674_" gradientUnits="userSpaceOnUse" x1="-3278.3816" y1="3318.3323" x2="-3278.5315" y2="3308.0522" gradientTransform="matrix(0.1654 -0.9862 0.9862 0.1654 -2675.5642 -3649.0164)">
				<stop  offset="0" style="stop-color:#7E1A1D"/>
				<stop  offset="1" style="stop-color:#C1272D"/>
			</linearGradient>
			<path style="fill:url(#SVGID_00000077293728856253738020000012424338658142688674_);" d="M79.5,140.2L79.5,140.2
				c-0.5,3.1-3.4,5.2-6.5,4.6L0.5,132.7l0,0c1.6-9.3,10.3-15.5,19.6-14l50.1,8.4C76.4,128.2,80.5,134,79.5,140.2z"/>
		</g>
		<g>
			<path d="M120.7,288.6L120.7,288.6c-1.3,0-2.3-1-2.3-2.3V140.4c0-1.3,1-2.3,2.3-2.3h0c1.3,0,2.3,1,2.3,2.3v145.9
				C123,287.6,122,288.6,120.7,288.6z"/>
			<path d="M137.9,290.3L137.9,290.3c-0.3,1.4-1.6,2.2-3,2l-14.4-3c-1.4-0.3-2.2-1.6-2-3l0,0c0.3-1.4,1.6-2.2,3-2l14.4,3
				C137.3,287.6,138.2,288.9,137.9,290.3z"/>
		</g>
		<g>
			<path class="st4" d="M104.9,12.6L104.9,12.6c36.3,0,65.8,29.5,65.8,65.8v18.3c0,28.1-22.8,50.9-50.9,50.9H91.1
				c-28.4,0-51.4-23-51.4-51.4V77.8C39.7,41.8,68.9,12.6,104.9,12.6L104.9,12.6z"/>
			<g>
				<path class="st4" d="M77.8,26l-4.7,3C64,34.7,52,32,46.2,22.9l0,0c-1.6-2.6-0.9-6,1.7-7.6l0,0c9.1-5.8,21.1-3.1,26.9,6L77.8,26
					L77.8,26z"/>
				<path class="st4" d="M79.2,25.3l1.7-4.2c3.2-8.3-0.9-17.6-9.2-20.8l0,0c-2.3-0.9-5,0.2-5.9,2.6l0,0c-3.2,8.3,0.9,17.6,9.2,20.8
					L79.2,25.3L79.2,25.3z"/>
			</g>
			<g>
				<g>
					<path class="st5" d="M149,73.8c2.7,1.6,5.3,1.6,8,0"/>
					<path class="st5" d="M88,73.8c2.7,1.6,5.3,1.6,8,0"/>
				</g>
				<g>
					<path d="M134.7,87.5l2.3,1.7c2.4,1.8,2.8,5.1,1,7.5l-1.7,2.3c-3.2,4.3-9.4,5.1-13.7,1.9l0,0c-3.6-2.7-4.3-7.9-1.6-11.6l0,0
						C124.3,85.1,130.4,84.3,134.7,87.5z"/>
					<circle class="st6" cx="136.1" cy="93.8" r="2"/>
				</g>
			</g>
		</g>
		<g>
			
				<linearGradient id="SVGID_00000056389600065021658480000000045025453487176624_" gradientUnits="userSpaceOnUse" x1="-6672.6255" y1="170.5001" x2="-6672.8652" y2="153.5001" gradientTransform="matrix(-1 0 0 -1 -6624.8301 294)">
				<stop  offset="0" style="stop-color:#7E1A1D"/>
				<stop  offset="1" style="stop-color:#C1272D"/>
			</linearGradient>
			<path style="fill:url(#SVGID_00000056389600065021658480000000045025453487176624_);" d="M51,91.6L51,91.6c3.1,0,5.7,2.5,5.7,5.7
				v125.3l0,0c-9.4,0-17-7.6-17-17V102.9C39.7,96.7,44.8,91.6,51,91.6z"/>
			
				<linearGradient id="SVGID_00000034773385621227944790000010755070916524258969_" gradientUnits="userSpaceOnUse" x1="-6680.749" y1="163.27" x2="-6681.0088" y2="146.27" gradientTransform="matrix(-1 0 0 -1 -6624.8301 294)">
				<stop  offset="0" style="stop-color:#7E1A1D"/>
				<stop  offset="1" style="stop-color:#C1272D"/>
			</linearGradient>
			<path style="fill:url(#SVGID_00000034773385621227944790000010755070916524258969_);" d="M59,88.6L59,88.6c3.1,0,5.7,2.5,5.7,5.7
				v125.3l0,0c-9.4,0-17-7.6-17-17V99.9C47.7,93.7,52.8,88.6,59,88.6z"/>
		</g>
	</g>
</g>
</svg>
