<?xml version="1.0" encoding="UTF-8"?>
<svg id="Layer_2" data-name="Layer 2" xmlns="http://www.w3.org/2000/svg" xmlns:xlink="http://www.w3.org/1999/xlink" viewBox="0 0 173.67 296.73">
  <defs>
    <style>
      .cls-1 {
        fill: url(#linear-gradient-2);
      }

      .cls-2 {
        fill: url(#linear-gradient-6);
      }

      .cls-3 {
        fill: #c1272d;
      }

      .cls-4 {
        fill: none;
        stroke: #000;
        stroke-linecap: round;
        stroke-miterlimit: 10;
        stroke-width: 5px;
      }

      .cls-5 {
        fill: #333;
      }

      .cls-6 {
        fill: url(#linear-gradient-5);
      }

      .cls-7 {
        fill: url(#linear-gradient-3);
      }

      .cls-8 {
        fill: url(#linear-gradient);
      }

      .cls-9 {
        fill: url(#linear-gradient-4);
      }
    </style>
    <linearGradient id="linear-gradient" x1="162.58" y1="117.03" x2="162.34" y2="134.03" gradientTransform="translate(324.37 301.26) rotate(-180)" gradientUnits="userSpaceOnUse">
      <stop offset="0" stop-color="#7e1a1d"/>
      <stop offset="1" stop-color="#c1272d"/>
    </linearGradient>
    <linearGradient id="linear-gradient-2" x1="154.45" y1="124.26" x2="154.2" y2="141.25" gradientTransform="translate(308.37 295.26) rotate(-180)" xlink:href="#linear-gradient"/>
    <linearGradient id="linear-gradient-3" x1="-2155.99" y1="-1717.44" x2="-2156.13" y2="-1707.16" gradientTransform="translate(-2115.74 1814.31) rotate(-180) scale(1 -1)" xlink:href="#linear-gradient"/>
    <linearGradient id="linear-gradient-4" x1="-2164.07" y1="-1713.07" x2="-2164.22" y2="-1702.79" gradientTransform="translate(-2123.27 1824.31) rotate(-180) scale(1 -1)" xlink:href="#linear-gradient"/>
    <linearGradient id="linear-gradient-5" x1="-4954.76" y1="118.03" x2="-4955" y2="135.03" gradientTransform="translate(-4906.97) rotate(-180) scale(1 -1)" xlink:href="#linear-gradient"/>
    <linearGradient id="linear-gradient-6" x1="-4962.89" y1="125.26" x2="-4963.14" y2="142.25" gradientTransform="translate(-4906.97) rotate(-180) scale(1 -1)" xlink:href="#linear-gradient"/>
  </defs>
  <g id="Layer_1-2" data-name="Layer 1">
    <g id="_5" data-name="5">
      <g>
        <rect x="114.55" y="132.39" width="4.68" height="150.55" rx="2.34" ry="2.34" transform="translate(217.92 423.5) rotate(-175.71)"/>
        <rect x="113.49" y="277.78" width="5.06" height="19.75" rx="2.53" ry="2.53" transform="translate(374.22 459.52) rotate(145.62)"/>
      </g>
      <g>
        <rect x="84.28" y="132.88" width="4.68" height="150.55" rx="2.34" ry="2.34" transform="translate(157.42 422.2) rotate(-175.71)"/>
        <rect x="83.22" y="278.27" width="5.06" height="19.75" rx="2.53" ry="2.53" transform="translate(319.24 477.51) rotate(145.62)"/>
      </g>
      <g>
        <path class="cls-8" d="m170.69,85.13h0v125.34c0,3.12-2.54,5.66-5.66,5.66h0c-6.26,0-11.34-5.08-11.34-11.34v-102.66c0-9.38,7.62-17,17-17Z" transform="translate(324.37 301.26) rotate(180)"/>
        <path class="cls-1" d="m162.69,82.13h0v125.34c0,3.12-2.54,5.66-5.66,5.66h0c-6.26,0-11.34-5.08-11.34-11.34v-102.66c0-9.38,7.62-17,17-17Z" transform="translate(308.37 295.26) rotate(180)"/>
      </g>
      <g>
        <path class="cls-7" d="m43.29,77.56h0c3.12,0,5.66,2.54,5.66,5.66v73.53h0c-9.38,0-17-7.62-17-17v-50.85c0-6.26,5.08-11.34,11.34-11.34Z" transform="translate(162.69 96.64) rotate(99.52)"/>
        <path class="cls-9" d="m43.76,85.75h0c3.12,0,5.66,2.54,5.66,5.66v73.53h0c-9.38,0-17-7.62-17-17v-50.85c0-6.26,5.08-11.34,11.34-11.34Z" transform="translate(171.31 105.72) rotate(99.52)"/>
      </g>
      <g>
        <path class="cls-3" d="m105.69,7.06h0c36.33,0,65.82,29.49,65.82,65.82v18.31c0,28.07-22.79,50.86-50.86,50.86h-28.73c-28.37,0-51.4-23.03-51.4-51.4v-18.42c0-35.97,29.2-65.18,65.18-65.18Z" transform="translate(-9.24 15.28) rotate(-7.9)"/>
        <g>
          <path d="m132.03,76.69h2.9c2.95,0,5.35,2.4,5.35,5.35v2.9c0,5.38-4.37,9.75-9.75,9.75h0c-4.55,0-8.25-3.7-8.25-8.25h0c0-5.38,4.37-9.75,9.75-9.75Z" transform="translate(78.26 -61.85) rotate(37.1)"/>
          <circle class="cls-5" cx="138.72" cy="85.31" r="2"/>
        </g>
        <g>
          <path class="cls-3" d="m71.42,24.73l-4.22,3.57c-8.21,6.95-20.5,5.93-27.45-2.27h0c-1.97-2.33-1.68-5.81.64-7.79h0c8.21-6.95,20.5-5.93,27.45,2.27l3.57,4.22Z"/>
          <path class="cls-3" d="m72.74,23.89l1.05-4.43c2.05-8.63-3.29-17.29-11.92-19.33h0c-2.45-.58-4.9.93-5.48,3.38h0c-2.05,8.63,3.29,17.29,11.92,19.33l4.43,1.05Z"/>
        </g>
        <g>
          <path class="cls-4" d="m145.17,67.31c2.87,1.25,5.51.88,7.92-1.1"/>
          <path class="cls-4" d="m84.75,75.7c2.87,1.25,5.51.88,7.92-1.1"/>
        </g>
      </g>
      <g>
        <path class="cls-6" d="m51.03,86.13h0c3.12,0,5.66,2.54,5.66,5.66v125.34h0c-9.38,0-17-7.62-17-17v-102.66c0-6.26,5.08-11.34,11.34-11.34Z"/>
        <path class="cls-2" d="m59.03,83.13h0c3.12,0,5.66,2.54,5.66,5.66v125.34h0c-9.38,0-17-7.62-17-17v-102.66c0-6.26,5.08-11.34,11.34-11.34Z"/>
      </g>
    </g>
  </g>
</svg>