<?xml version="1.0" encoding="UTF-8"?>
<svg id="frog_front" xmlns="http://www.w3.org/2000/svg" xmlns:xlink="http://www.w3.org/1999/xlink" viewBox="0 0 169.25 450.26">
  <defs>
    <style>
      .solid-shapes {
        fill: #009245;
      }

      .mouth {
        fill: none;
        stroke: #000;
        stroke-miterlimit: 10;
      }

      .cheeks {
        fill: #39b54a;
      }

      .arms {
        fill: url(#frog-grad);
      }
    </style>
    
    <script>
        const frogFront = document.querySelector('#frog_front');

        function logFroggoId() {
          console.log('i hope you are having a Ribbiting time');
        }      

        frogFront.addEventListener('click', logFroggoId);
    </script>
    <linearGradient id="frog-grad" x1="87.39" y1="233.96" x2="88.61" y2="191.13" gradientUnits="userSpaceOnUse">
      <stop offset="0" stop-color="#009245"/>
      <stop offset="1" stop-color="#005f2d"/>
    </linearGradient>
  </defs>
  <g id="frog-front">
    <path id="legs" class="solid-shapes" d="m74.18,272.26c2.82,52.92,5.64,105.83,8.46,158.75-2.65,4.47-20.46,18.25-20.46,18.25,0,0-32.7-1.69-44.71-18.25,10.9-6.62,21.81-13.25,32.71-19.87v-138.87h24Zm24-1c-2.82,53.51-5.64,107.03-8.46,160.54,2.65,4.52,20.46,18.46,20.46,18.46,0,0,32.7-1.71,44.71-18.46-10.9-6.7-21.81-13.4-32.71-20.1v-140.44h-24Z"/>
    <path id="arms" class="arms" d="m44.17,144.13h0s-9.28,194.54-9.28,194.54L0,329.93l19.64-170.13c1.12-9.67,11.58-16.36,24.52-15.68Zm81.37-2.38h0s11.83,196.82,11.83,196.82l31.89-8.02-20.94-172.38c-1.19-9.8-10.92-16.81-22.78-16.41Z"/>
    <path id="frog" class="solid-shapes" d="m120.93,118.44c8.53-1.8,14-5.12,17.12-7.48,17.11-12.93,21.14-39.66,9.14-66.41,0-23.35-2.92-36.84-19.12-42.21-.1-.03-.2-.06-.29-.09-25.11-6.3-37.2,1.95-43.02,17.25-.87,2.28-4.4,2.34-5.34.09C72.87,3.92,59.2-4.06,35.6,2.07c-.2.05-.41.13-.6.22-12.91,6.22-18.82,12.7-18.82,41.77-12.11,26.98-8.07,53.91,9.14,66.9,3.48,2.62,9.79,6.41,19.97,8.01-8.04,9.42-13.32,24.85-15.1,39.29l-12,86.43c0,16.89,13.69,30.57,30.57,30.57h69.85c16.89,0,30.57-13.69,30.57-30.57l-11-85.43c-4.04-14.31-9.39-31.04-17.25-40.82Z"/>
    <g id="face">
      <path id="eyes" d="m49.18,41.26h0c-3.31,0-6-2.69-6-6v-5c0-3.31,2.69-6,6-6h0c3.31,0,6,2.69,6,6v5c0,3.31-2.69,6-6,6Zm73-6v-5c0-3.31-2.69-6-6-6h0c-3.31,0-6,2.69-6,6v5c0,3.31,2.69,6,6,6h0c3.31,0,6-2.69,6-6Z"/>
      <line id="mouth" class="mouth" x1="74.18" y1="71.76" x2="90.68" y2="71.76"/>
      <path id="cheeks" class="cheeks" d="m143.39,56.38c3.16,0,6.14.74,8.76,2.03,3.44,11.89,3.21,23.34-.29,32.53-2.55,1.21-5.43,1.89-8.47,1.89-10.55,0-19.09-8.16-19.09-18.23,0-10.07,8.55-18.23,19.09-18.23Zm-123.01.01c-3.16,0-6.14.74-8.76,2.03-3.44,11.89-3.21,23.34.29,32.53,2.55,1.21,5.43,1.89,8.47,1.89,10.55,0,19.09-8.16,19.09-18.23,0-10.07-8.55-18.23-19.09-18.23Z"/>
    </g>
  </g>
</svg>