<?xml version="1.0" encoding="UTF-8"?>
<svg id="Layer_1" data-name="Layer 1" xmlns="http://www.w3.org/2000/svg" viewBox="0 0 300 300">
  <defs>
    <style>
      .cls-1 {
        fill: #04853e;
      }

      .cls-2 {
        fill: #fff;
      }

      .cls-3 {
        fill: #5f3913;
      }
    </style>
  </defs>
  <circle class="cls-1" cx="149.5" cy="114.5" r="77.5"/>
  <circle class="cls-3" cx="116" cy="232" r="36"/>
  <rect class="cls-3" x="146" y="73" width="6" height="159"/>
  <path class="cls-2" d="m123,75.83s0,13.95,15.35,15.35c0,0,2.79-11.16-15.35-15.35Z"/>
  <path class="cls-2" d="m123,58.5s0,13.95,15.35,15.35c0,0,2.79-11.16-15.35-15.35Z"/>
  <path class="cls-2" d="m123,110.5s0,13.95,15.35,15.35c0,0,2.79-11.16-15.35-15.35Z"/>
  <path class="cls-2" d="m123,93.17s0,13.95,15.35,15.35c0,0,2.79-11.16-15.35-15.35Z"/>
  <path class="cls-2" d="m123,127.83s0,13.95,15.35,15.35c0,0,2.79-11.16-15.35-15.35Z"/>
  <path class="cls-2" d="m123,162.5s0,13.95,15.35,15.35c0,0,2.79-11.16-15.35-15.35Z"/>
  <path class="cls-2" d="m123,145.17s0,13.95,15.35,15.35c0,0,2.79-11.16-15.35-15.35Z"/>
  <path class="cls-1" d="m190,195.5s0,13.95,15.35,15.35c0,0,2.79-11.16-15.35-15.35Z"/>
  <path class="cls-1" d="m190,233.5s0,13.95,15.35,15.35c0,0,2.79-11.16-15.35-15.35Z"/>
  <path class="cls-1" d="m190,214.5s0,13.95,15.35,15.35c0,0,2.79-11.16-15.35-15.35Z"/>
  <path class="cls-1" d="m190,252.5s0,13.95,15.35,15.35c0,0,2.79-11.16-15.35-15.35Z"/>
  <path class="cls-3" d="m201,188.3v-20.43c0-11.22-3.07-22.27-9.07-31.97-3.42-5.52-8.06-11.67-14.37-17.9-24.92-24.63-25.57-45-25.57-45v49.14c0,.73.04,1.46.14,2.19.67,4.9,4.42,22.51,24.36,38.67,12.49,10.13,18.63,19.4,21.63,25.85.65,1.4,2.87.97,2.87-.56Z"/>
  <circle class="cls-3" cx="149" cy="73" r="3"/>
  <ellipse class="cls-2" cx="101.65" cy="217.79" rx="8.39" ry="3.98" transform="translate(-130.25 154.65) rotate(-49.75)"/>
</svg>