<?xml version="1.0" encoding="UTF-8"?>
<svg id="small-red-bird_front" xmlns="http://www.w3.org/2000/svg" xmlns:xlink="http://www.w3.org/1999/xlink" viewBox="0 0 131 312.1">
  <defs>
    <style>
      .sm_red-head {
        fill: #c1272d;
      }

      .sm_red-lw-feather2 {
        fill: url(#bird-grad-4);
      }

      .sm_red-lw-feather1 {
        fill: url(#bird-grad-3);
      }

      .sm_red-rw-feather2 {
        fill: url(#bird-grad-2);
      }

      .sm_red-rw-feather1 {
        fill: url(#bird-grad);
      }

      #small-red-bird_front:hover .sm_red-head { fill: yellow; transition: ease-in-out .2s; }
      #small-red-bird_front:hover .sm_red-lw-feather2 { fill: yellow; transition: ease-in-out .2s; }
      #small-red-bird_front:hover .sm_red-lw-feather1 { fill: yellow; transition: ease-in-out .2s; }
      #small-red-bird_front:hover .sm_red-rw-feather2 { fill: yellow; transition: ease-in-out .2s; }
      #small-red-bird_front:hover .sm_red-rw-feather1 { fill: yellow; transition: ease-in-out .2s; }
      #small-red-bird_front:hover #sm_red-legs { fill: orange; transition: ease-in-out .2s; }

    </style>
    <script>
        const smRedBirdFront = document.querySelector('#small-red-bird_front');

        function logBirdyId() {
          console.log('i tought i saw a puddycat!');
        }      

        smRedBirdFront.addEventListener('click', logBirdyId);
    </script>
    <linearGradient id="bird-grad" x1="122.9" y1="133.7" x2="122.66" y2="150.7" gradientTransform="translate(245 334.59) rotate(-180)" gradientUnits="userSpaceOnUse">
      <stop offset="0" stop-color="#7e1a1d"/>
      <stop offset="1" stop-color="#c1272d"/>
    </linearGradient>
    <linearGradient id="bird-grad-2" data-name="bird-grad" x1="114.77" y1="140.92" x2="114.51" y2="157.92" gradientTransform="translate(229 328.59) rotate(-180)" xlink:href="#bird-grad"/>
    <linearGradient id="bird-grad-3" data-name="bird-grad" x1="-1847.1" y1="134.7" x2="-1847.34" y2="151.7" gradientTransform="translate(-1839) rotate(-180) scale(1 -1)" xlink:href="#bird-grad"/>
    <linearGradient id="bird-grad-4" data-name="bird-grad" x1="-1855.23" y1="141.92" x2="-1855.49" y2="158.92" gradientTransform="translate(-1839) rotate(-180) scale(1 -1)" xlink:href="#bird-grad"/>
  </defs>
  <g id="sm-redbird-front">
    <path id="sm_red-legs" d="m51,300.47c0,.34-.07.66-.2.95-.17,1-.93,1.85-1.97,2.07l-14.39,3.01c-1.37.29-2.7-.6-2.99-1.98h0c-.28-1.38.6-2.73,1.96-3.02l12.91-2.7v-145.64c0-1.3,1.05-2.36,2.34-2.36s2.34,1.06,2.34,2.36v147.31Zm44.41,8.32l-10.87-9.98s-.09-.07-.14-.1v-145.98c0-1.3-1.05-2.36-2.34-2.36s-2.34,1.06-2.34,2.36v147.31c0,.75.35,1.4.88,1.83.13.26.31.51.53.71l10.87,9.98c1.03.95,2.63.87,3.57-.17.94-1.04.86-2.66-.17-3.61Z"/>
    <g id="sm_red-wings">
      <g id="sm_red-right-wing">
        <path class="sm_red-rw-feather1" d="m131,101.8h0v125.34c0,3.12-2.54,5.66-5.66,5.66h0c-6.26,0-11.34-5.08-11.34-11.34v-102.66c0-9.38,7.62-17,17-17Z" transform="translate(245 334.59) rotate(180)"/>
        <path class="sm_red-rw-feather2" d="m123,98.8h0v125.34c0,3.12-2.54,5.66-5.66,5.66h0c-6.26,0-11.34-5.08-11.34-11.34v-102.66c0-9.38,7.62-17,17-17Z" transform="translate(229 328.59) rotate(180)"/>
      </g>
      <g id="sm_red-left-wing">
        <path class="sm_red-lw-feather1" d="m11.34,102.8h0c3.12,0,5.66,2.54,5.66,5.66v125.34h0C7.62,233.8,0,226.18,0,216.8v-102.66C0,107.88,5.08,102.8,11.34,102.8Z"/>
        <path class="sm_red-lw-feather2" d="m19.34,99.8h0c3.12,0,5.66,2.54,5.66,5.66v125.34h0c-9.38,0-17-7.62-17-17v-102.66c0-6.26,5.08-11.34,11.34-11.34Z"/>
      </g>
    </g>
    <path id="sm_red-head" class="sm_red-head" d="m74.08,24.41l.14-.1c7.14-5.26,8.66-15.31,3.4-22.45h0c-1.49-2.03-4.34-2.46-6.37-.97-3.09,2.28-5.13,5.46-6.02,8.91-3.54-4.84-9.25-8-15.71-8h0c-3.05,0-5.52,2.47-5.52,5.52h0c0,7.57,4.33,14.11,10.63,17.34C23.65,29.7,0,56.57,0,88.97v18.42c0,28.39,23.01,51.4,51.4,51.4h28.73c28.09,0,50.86-22.77,50.86-50.86v-18.31c0-33.33-24.78-60.86-56.92-65.21Z"/>
    <path id="sm_red-face" d="m26.96,94.8h0c-2.18,0-3.96-1.77-3.96-3.96v-6.65c0-2.18,1.77-3.96,3.96-3.96h0c2.18,0,3.96,1.77,3.96,3.96v6.65c0,2.18-1.77,3.96-3.96,3.96Zm79.04-4v-6.56c0-2.21-1.79-4-4-4h0c-2.21,0-4,1.79-4,4v6.56c0,2.21,1.79,4,4,4h0c2.21,0,4-1.79,4-4Zm-32.64,20.53l6.36-6.43-6.36-6.43c-3.51-3.55-9.21-3.55-12.73,0l-1.06,1.07c-2.93,2.96-2.93,7.75,0,10.71l1.06,1.07c3.51,3.55,9.21,3.55,12.73,0Z"/>
  </g>
</svg>