<?xml version="1.0" encoding="UTF-8"?>
<svg id="squirrel-front" xmlns="http://www.w3.org/2000/svg" xmlns:xlink="http://www.w3.org/1999/xlink" viewBox="0 0 200.44 514">
  <defs>
    <style>
      .sq-arms {
        fill: url(#squirrel-drkgrad);
      }

      .sq-in-ear {
        fill: #c7b299;
      }

      .sq-solid {
        fill: #a67c52;
      }

      .sq-nose {
        fill: #42210b;
      }

      .sq-tail {
        fill: #754c24;
      }
    </style>
    <script>
        const squirrelFront = document.querySelector('#squirrel-front');

        function logSquirrelyId() {
          console.log('easy, breezy, beautiful - Cover Squirrel!');
        }      

        squirrelFront.addEventListener('click', logSquirrelyId);
    </script>
    <linearGradient id="squirrel-drkgrad" x1="100.21" y1="354.83" x2="101.25" y2="318.57" gradientUnits="userSpaceOnUse">
      <stop offset="0" stop-color="#a67c52"/>
      <stop offset="1" stop-color="#8c6239"/>
    </linearGradient>
  </defs>
  <g id="squirrel-front-2" data-name="squirrel-front">
    <rect id="sq-tail" class="sq-tail" x="9.66" width="181" height="361" rx="70.35" ry="70.35"/>
    <path id="sq-arms" class="sq-arms" d="m159.82,220.72l39.92,128.91c2.88,9.29-3.19,20.4-14.26,26.16h0c-14.51,7.54-30.82,2.64-33.24-9.99l-28.23-147.46h0c17.98-6.88,33.26-5.86,35.82,2.38Zm-119.19,0L.71,349.63c-2.88,9.29,3.19,20.4,14.26,26.16h0c14.51,7.54,30.82,2.64,33.24-9.99l28.23-147.46h0c-17.98-6.88-33.26-5.86-35.82,2.38Z"/>
    <path id="sq-legs" class="sq-solid" d="m71.84,514h-10.52c-12.51,0-22.66-10.15-22.66-22.66v-162.34h59v159.18c0,14.26-11.56,25.82-25.82,25.82Zm57.64,0h10.52c12.51,0,22.66-10.15,22.66-22.66v-162.34h-59v159.18c0,14.26,11.56,25.82,25.82,25.82Z"/>
    <path id="sq-head-body" class="sq-solid" d="m166.62,144.61v-12.04c0-13.87-4.24-26.74-11.49-37.4l7.54-13.06c5.89-10.21,2.4-23.26-7.81-29.15h0c-10.36-5.98-23.61-2.43-29.59,7.93l-4.79,8.3c-6.44-2.08-13.31-3.21-20.44-3.21h0c-7.11,0-13.96,1.14-20.38,3.22l-4.8-8.32c-5.98-10.36-19.23-13.91-29.59-7.93h0c-10.21,5.89-13.7,18.94-7.81,29.15l7.68,13.29c-6.97,10.45-11.03,23.01-11.03,36.51v12.15c0,22.18,13.85,41.11,33.36,48.66-11.13,7.93-18.42,26.91-20.59,44.42l-12,86.43c0,16.89,13.69,30.57,30.57,30.57h69.85c16.89,0,30.57-13.69,30.57-30.57l-10.05-78.03c-.67-5.18-1.74-10.3-3.26-15.29-4.53-14.8-10.56-30.32-19.29-37.35,19.49-7.38,33.35-26.21,33.35-48.28Z"/>
    <g id="sq-face">
      <path id="sq-eyes" d="m65.44,136.65h-2.37c-2.96,0-5.35-2.4-5.35-5.35v-12.12c0-2.96,2.4-5.35,5.35-5.35h2.37c2.96,0,5.35,2.4,5.35,5.35v12.12c0,2.96-2.4,5.35-5.35,5.35Zm78.39-5.35v-12.12c0-2.96-2.4-5.35-5.35-5.35h-2.37c-2.96,0-5.35,2.4-5.35,5.35v12.12c0,2.96,2.4,5.35,5.35,5.35h2.37c2.96,0,5.35-2.4,5.35-5.35Z"/>
      <path id="sq-nose" class="sq-nose" d="m95.35,144.31h0c-.66-.82-.26-2.17.65-2.19,4.08-.1,8.15-.2,12.23-.3.96-.02,1.5,1.42.84,2.24l-.55.68c-3.54,4.36-9.43,4.17-13.16-.43Z"/>
      <path id="sq-inner-ear" class="sq-in-ear" d="m52.12,85.09l-3-5.91c-2.72-5.37-.84-12.35,4.21-15.58h0c4.39-2.81,9.86-1.3,12.23,3.37l1.94,3.84c1.52,3.01.47,6.92-2.36,8.73l-10,6.4c-1.09.7-2.44.32-3.03-.83Zm97.84,0l3-5.91c2.72-5.37.84-12.35-4.21-15.58h0c-4.39-2.81-9.86-1.3-12.23,3.37l-1.94,3.84c-1.52,3.01-.47,6.92,2.36,8.73l10,6.4c1.09.7,2.44.32,3.03-.83Z"/>
    </g>
  </g>
</svg>