<?xml version="1.0" encoding="UTF-8"?>
<svg id="toad_front" xmlns="http://www.w3.org/2000/svg" xmlns:xlink="http://www.w3.org/1999/xlink" viewBox="0 0 147.43 335.26">
  <defs>
    <style>
      .t-body {
        fill: #009245;
      }

      .t-mouth {
        stroke: #000;
        stroke-miterlimit: 10;
      }

      .t-cheeks {
        fill: #39b54a;
      }

      .t-arms {
        fill: url(#frog-grad);
      }
    </style>
    <script>
        const toadFront = document.querySelector('#toad_front');

        function logFroggoId() {
          console.log('wait... do toads use Lilypads or Toadstool?');
        }      

        toadFront.addEventListener('click', logFroggoId);
    </script>
    <linearGradient id="frog-grad" x1="75.66" y1="166.12" x2="76.49" y2="137.14" gradientUnits="userSpaceOnUse">
      <stop offset="0" stop-color="#009245"/>
      <stop offset="1" stop-color="#005f2d"/>
    </linearGradient>
  </defs>
  <g id="toad-front">
    <path id="t-arms" class="t-arms" d="m143.06,105.72l4.36,128.31-28.43,2.58,5.98-132.23,18.09,1.34Zm-138.7,0L0,234.03l28.43,2.58-5.98-132.23-18.09,1.34Z"/>
    <path id="t-body" class="t-body" d="m109.47,158.22c11.32-1.85,18.2-7.3,21.86-10.98,17.11-17.16,21.14-52.63,9.14-88.13,0-30.98-2.92-48.89-19.12-56.01-.1-.04-.2-.08-.29-.11-25.11-8.36-37.2,2.59-43.02,22.9-.87,3.03-4.4,3.11-5.34.12C66.16,5.21,52.49-5.39,28.89,2.74c-.2.07-.41.17-.6.29C15.39,11.29,9.47,19.89,9.47,58.46-2.64,94.26,1.4,130,18.61,147.24c3.35,3.35,9.33,8.13,18.86,10.37v138.51c-10.9,6.62-21.81,13.25-32.71,19.87,12.01,16.56,44.71,18.25,44.71,18.25,0,0,17.81-13.78,20.46-18.25-2.8-52.58-5.61-105.16-8.41-157.75h23.84c-2.79,52.85-5.57,105.69-8.36,158.54,2.65,4.52,20.46,18.46,20.46,18.46,0,0,32.7-1.71,44.71-18.46-10.9-6.7-21.81-13.4-32.71-20.1v-138.48Z"/>
    <g id="t-face">
      <path id="t-eyes" d="m42.47,41.26h0c-3.31,0-6-2.69-6-6v-5c0-3.31,2.69-6,6-6h0c3.31,0,6,2.69,6,6v5c0,3.31-2.69,6-6,6Zm73-6v-5c0-3.31-2.69-6-6-6h0c-3.31,0-6,2.69-6,6v5c0,3.31,2.69,6,6,6h0c3.31,0,6-2.69,6-6Z"/>
      <line id="t-mouth" class="t-mouth" x1="67.47" y1="71.76" x2="83.97" y2="71.76"/>
      <path id="t-cheeks" class="t-cheeks" d="m127.18,54.03c3.02-.92,6.08-1.09,8.97-.62,6.76,10.36,9.9,21.38,9.24,31.19-2.09,1.9-4.64,3.4-7.55,4.29-10.08,3.08-20.65-2.22-23.59-11.85-2.94-9.63,2.84-19.93,12.93-23.02Zm-104.13.24c-2.98-1.06-6.03-1.37-8.94-1.03-7.23,10.04-10.87,20.9-10.67,30.73,2,2,4.48,3.61,7.34,4.63,9.93,3.55,20.73-1.27,24.11-10.75,3.39-9.48-1.92-20.04-11.85-23.59Z"/>
    </g>
  </g>
</svg>