<?xml version="1.0" encoding="utf-8"?>
<!-- Generator: Adobe Illustrator 27.2.0, SVG Export Plug-In . SVG Version: 6.00 Build 0)  -->
<svg version="1.1" id="Layer_1" xmlns="http://www.w3.org/2000/svg" xmlns:xlink="http://www.w3.org/1999/xlink" x="0px" y="0px"
	 viewBox="0 0 300 300" style="enable-background:new 0 0 300 300;" xml:space="preserve">
<style type="text/css">
	.st0{fill:#603814;}
	.st1{fill:none;stroke:#603814;stroke-width:10;stroke-miterlimit:10;}
</style>
<g>
	<path class="st0" d="M76,196H35.6c-10.3,0-18.6-8.3-18.6-18.6v-55.8c0-10.3,8.3-18.6,18.6-18.6H76V196z"/>
</g>
<g>
	<path class="st0" d="M159.6,255.5L83,196v-93l76.6-58.5c3.5,0,6.4,2.6,6.4,5.7v199.6C166,252.9,163.1,255.5,159.6,255.5z"/>
</g>
<path class="st1" d="M185,107.1c22.6,0,40.9,18.3,40.9,40.9s-18.3,40.9-40.9,40.9"/>
<path class="st1" d="M185,131.8c10,0,18.1,8.1,18.1,18.1c0,10-8.1,18.1-18.1,18.1"/>
<path class="st1" d="M185,83.4c36.8,0,66.7,29.9,66.7,66.7s-29.9,66.7-66.7,66.7"/>
<path class="st1" d="M185,60.2c49.5,0,89.6,40.1,89.6,89.6s-40.1,89.6-89.6,89.6"/>
</svg>
