<?xml version="1.0" encoding="UTF-8"?>
<svg id="Layer_1" data-name="Layer 1" xmlns="http://www.w3.org/2000/svg" viewBox="0 0 150 150">
  <defs>
    <style>
      .cls-1 {
        fill: #2989ca;
      }

      .cls-2 {
        fill: none;
        stroke: #2989ca;
        stroke-miterlimit: 10;
        stroke-width: 5.13px;
      }
    </style>
  </defs>
  <path class="cls-1" d="m38.77,99.73h-20.73c-5.27,0-9.54-4.27-9.54-9.54v-28.64c0-5.27,4.27-9.54,9.54-9.54h20.73v47.71Z"/>
  <path class="cls-1" d="m81.66,130.25l-39.3-30.53v-47.71l39.3-30.01c1.81,0,3.28,1.31,3.28,2.93v102.4c0,1.62-1.47,2.93-3.28,2.93Z"/>
  <path class="cls-2" d="m94.69,54.11c11.59,0,20.99,9.4,20.99,20.99s-9.4,20.99-20.99,20.99"/>
  <path class="cls-2" d="m94.69,66.77c5.14,0,9.3,4.16,9.3,9.3s-4.16,9.3-9.3,9.3"/>
  <path class="cls-2" d="m94.69,41.96c18.89,0,34.21,15.31,34.21,34.21s-15.31,34.21-34.21,34.21"/>
  <path class="cls-2" d="m94.69,30.04c25.39,0,45.97,20.58,45.97,45.97s-20.58,45.97-45.97,45.97"/>
</svg>